# xmcd
# 
# Track frame offsets:
#     183
#     6320
#     17200
#     42465
#     61750
#     83625
#     103043
#     115078
#     135453
#     157410
#     170310
# 
# Disc length: 2574
# 
# Revision: 12
# Processed by: cddbd v1.5.2PL0 Copyright (c) Steve Scherf et al.
# Submitted via: BonkEnc v1.0.15
# 
DISCID=890a0c0b
DTITLE=Kiss i - Music from The Elder (The Remasters)
DYEAR=1981
DGENRE=Rock
TTITLE0=Fanfare
TTITLE1=Just A Boy
TTITLE2=Odyssey
TTITLE3=Only You
TTITLE4=Under The Rose
TTITLE5=Dark Light
TTITLE6=A World Without Heroes
TTITLE7=The Oath
TTITLE8=Mr. Blackwell
TTITLE9=Escape From The Island
TTITLE10=I
EXTD=Year: 1981
EXTT0=
EXTT1=
EXTT2=
EXTT3=
EXTT4=
EXTT5=
EXTT6=
EXTT7=
EXTT8=
EXTT9=
EXTT10=
PLAYORDER=
